<svg xmlns="http://www.w3.org/2000/svg" width="704" height="457" fill="currentColor" viewBox="0 0 704 457">
  <path fill-rule="evenodd"
    d="M607.566 9.14h42.348c-10.46 72.814-22.804 144.781-37.055 215.902 28.236-25.033 56.461-25.033 84.697 0 11.18 69.895-2.944 135.604-42.349 197.127-76.174 49.67-113.229 32.46-111.164-51.628A10858.582 10858.582 0 0 1 607.566 9.14Zm31.761 234.676c26.679 49.421 21.385 99.485-15.881 150.192-7.294 8.042-16.113 14.299-26.468 18.774-21.788-63.669-7.675-119.991 42.349-168.966Z"
    clip-rule="evenodd" />
  <path fill-rule="evenodd"
    d="M438.172 131.171c54.629 13.571 82.865 46.425 84.697 98.564-12.228 81.108-47.515 153.075-105.871 215.902-10.036 4.532-20.623 6.096-31.761 4.693-4.033-44.47-12.852-88.276-26.468-131.418-14.705 41.718-32.354 82.395-52.935 122.031-10.587 12.516-21.174 12.516-31.761 0-21.016-73.934-33.361-149.03-37.055-225.288 13.996-1.596 26.351 1.534 37.055 9.387a1043.12 1043.12 0 0 0 26.467 122.031c24.499-41.634 43.906-85.439 58.229-131.418 7.602-8.924 16.421-10.488 26.468-4.694a4937.976 4937.976 0 0 0 37.055 164.273c28.86-43.905 48.266-90.84 58.229-140.805-2.711-34.555-20.36-61.151-52.936-79.79 2.573-8.468 6.109-16.29 10.587-23.468Z"
    clip-rule="evenodd" />
  <path fill-rule="evenodd"
    d="M205.257 9.14h42.348c-20.327 119.859-46.794 238.76-79.403 356.707-5.272 27.988-7.04 56.149-5.294 84.483-20.655 2.566-36.536-3.693-47.641-18.774-73.655 35.042-110.71 14.705-111.165-61.015 3.261-46.212 19.142-88.453 47.642-126.725 29.115-30.532 64.401-39.919 105.871-28.161C180.239 147.956 196.12 79.117 205.257 9.14ZM120.56 234.429c27.801 63.022 13.689 120.91-42.348 173.66-10.037 4.531-20.624 6.096-31.761 4.693-6.194-71.282 18.506-130.734 74.109-178.353Z"
    clip-rule="evenodd" />
</svg>